<?xml version="1.0" encoding="UTF-8"?>
<svg xmlns="http://www.w3.org/2000/svg" viewBox="0 0 1024 1024" width="1024" height="1024">
  <!-- Chanakya minimalist mark (auto-traced). Fill uses currentColor for easy theming. -->
  <path fill="currentColor" fill-rule="evenodd" d="
M 384.00 804.50 L 377.50 804.00 L 392.00 798.50 L 410.00 788.50 L 422.50 778.00 L 433.50 764.00 L 440.50 742.00 L 436.50 708.00 L 436.50 686.00 L 439.50 673.00 L 453.50 647.00 L 479.50 620.00 L 478.00 619.50 L 471.00 625.50 L 452.50 644.00 L 437.50 664.00 L 428.50 685.00 L 426.50 698.00 L 427.50 715.00 L 426.00 715.50 L 422.50 702.00 L 422.50 681.00 L 428.50 661.00 L 444.50 635.00 L 463.00 615.50 L 491.00 593.50 L 524.00 572.50 L 586.00 537.50 L 614.00 518.50 L 639.00 498.50 L 670.50 464.00 L 679.50 450.00 L 688.50 430.00 L 692.50 412.00 L 692.50 395.00 L 687.50 376.00 L 679.00 361.50 L 685.50 385.00 L 684.50 413.00 L 679.50 431.00 L 672.50 445.00 L 658.50 466.00 L 634.00 492.50 L 600.00 519.50 L 557.00 545.50 L 521.00 561.50 L 555.00 537.50 L 575.00 520.50 L 600.50 495.00 L 624.50 465.00 L 640.50 439.00 L 651.50 413.00 L 657.50 386.00 L 656.50 360.00 L 654.00 351.50 L 652.50 371.00 L 647.50 389.00 L 636.50 409.00 L 615.50 436.00 L 607.00 457.50 L 605.50 456.00 L 606.50 437.00 L 611.50 418.00 L 609.50 416.00 L 618.50 403.00 L 625.50 387.00 L 632.50 352.00 L 630.50 317.00 L 626.50 302.00 L 614.50 277.00 L 606.50 266.00 L 585.00 246.50 L 553.00 231.50 L 522.00 225.50 L 486.00 225.50 L 448.00 232.50 L 418.00 244.50 L 395.00 259.50 L 376.50 278.00 L 366.50 294.00 L 358.50 315.00 L 356.50 333.00 L 349.50 353.00 L 355.00 358.50 L 361.00 359.50 L 363.50 357.00 L 365.00 349.50 L 366.50 363.00 L 371.50 364.00 L 368.50 367.00 L 368.50 374.00 L 345.50 418.00 L 343.50 427.00 L 349.00 433.50 L 352.00 434.50 L 366.50 433.00 L 358.50 437.00 L 366.00 439.50 L 370.50 444.00 L 370.50 457.00 L 369.50 450.00 L 368.00 449.50 L 363.50 460.00 L 367.00 464.50 L 372.00 461.50 L 380.00 461.50 L 395.00 468.50 L 403.00 467.50 L 404.50 469.00 L 404.00 470.50 L 398.00 471.50 L 379.00 469.50 L 371.00 472.50 L 368.50 478.00 L 371.00 482.50 L 380.50 483.00 L 379.50 486.00 L 381.50 494.00 L 376.50 504.00 L 375.50 514.00 L 378.50 521.00 L 390.00 530.50 L 406.00 533.50 L 418.00 531.50 L 431.00 525.50 L 427.50 530.00 L 430.00 530.50 L 471.00 518.50 L 504.50 503.00 L 484.00 520.50 L 461.50 545.00 L 461.50 548.00 L 465.00 549.50 L 476.50 541.00 L 468.50 554.00 L 468.50 585.00 L 464.50 599.00 L 460.00 605.50 L 462.50 597.00 L 461.50 578.00 L 453.50 559.00 L 447.50 552.00 L 446.50 545.00 L 442.00 540.50 L 430.00 538.50 L 412.00 541.50 L 392.00 541.50 L 379.00 536.50 L 369.50 527.00 L 367.50 522.00 L 367.50 509.00 L 371.50 500.00 L 371.50 494.00 L 363.50 483.00 L 363.50 475.00 L 365.50 472.00 L 358.50 465.00 L 363.50 450.00 L 362.50 444.00 L 359.00 441.50 L 345.00 440.50 L 340.50 438.00 L 336.50 432.00 L 338.50 418.00 L 358.50 381.00 L 357.00 377.50 L 352.50 378.00 L 355.50 375.00 L 355.50 372.00 L 353.00 368.50 L 346.00 366.50 L 342.50 363.00 L 341.50 356.00 L 349.50 339.00 L 354.50 309.00 L 364.50 285.00 L 376.50 269.00 L 388.00 257.50 L 404.00 245.50 L 422.00 235.50 L 451.00 224.50 L 490.00 217.50 L 524.00 217.50 L 554.00 222.50 L 572.00 228.50 L 587.00 236.50 L 600.00 245.50 L 617.50 263.00 L 629.50 281.00 L 644.50 312.00 L 683.50 350.00 L 694.50 366.00 L 706.50 395.00 L 711.50 421.00 L 711.50 459.00 L 705.50 487.00 L 693.50 514.00 L 678.50 535.00 L 661.00 552.50 L 647.00 563.50 L 610.00 584.50 L 611.00 581.50 L 646.00 557.50 L 673.50 529.00 L 691.50 497.00 L 698.50 476.00 L 700.00 463.50 L 694.50 478.00 L 681.50 502.00 L 660.50 528.00 L 618.00 564.50 L 532.00 621.50 L 511.00 638.50 L 485.50 667.00 L 475.50 684.00 L 468.00 702.50 L 470.50 681.00 L 481.50 655.00 L 492.50 638.00 L 518.50 611.00 L 514.00 612.50 L 487.00 634.50 L 469.50 654.00 L 456.50 681.00 L 454.50 694.00 L 456.50 731.00 L 455.50 745.00 L 447.50 766.00 L 443.50 772.00 L 424.00 789.50 L 404.00 799.50 L 384.00 804.50 Z
M 381.00 337.50 L 380.50 327.00 L 384.50 302.00 L 386.50 294.00 L 392.00 290.50 L 388.50 329.00 L 381.00 337.50 Z
M 371.00 340.50 L 369.50 340.00 L 366.50 328.00 L 372.50 297.00 L 373.50 294.00 L 378.00 291.50 L 378.50 298.00 L 371.00 340.50 Z
M 393.00 364.50 L 383.00 364.50 L 375.50 358.00 L 374.50 350.00 L 376.00 346.50 L 377.50 352.00 L 383.00 355.50 L 420.00 340.50 L 435.00 338.50 L 450.00 341.50 L 463.50 350.00 L 448.00 347.50 L 432.00 348.50 L 393.00 364.50 Z
  "/>
</svg>
